<svg width="42" height="33" viewBox="0 0 42 33" fill="none" xmlns="http://www.w3.org/2000/svg">
<path d="M21.2953 14.0156C21.2602 13.9708 21.2154 13.9345 21.1642 13.9096C21.1131 13.8847 21.0569 13.8717 21 13.8717C20.9431 13.8717 20.8869 13.8847 20.8357 13.9096C20.7846 13.9345 20.7398 13.9708 20.7047 14.0156L15.4547 20.6578C15.4114 20.7131 15.3845 20.7794 15.3772 20.8492C15.3698 20.919 15.3823 20.9895 15.4131 21.0526C15.4439 21.1157 15.4918 21.1688 15.5514 21.2059C15.611 21.243 15.6798 21.2626 15.75 21.2625H19.2141V32.625C19.2141 32.8312 19.3828 33 19.5891 33H22.4016C22.6078 33 22.7766 32.8312 22.7766 32.625V21.2672H26.25C26.5641 21.2672 26.7375 20.9062 26.5453 20.6625L21.2953 14.0156Z" fill="#097CDC"/>
<path d="M35.0344 9.68906C32.8875 4.02656 27.4172 0 21.0094 0C14.6016 0 9.13125 4.02188 6.98438 9.68438C2.96719 10.7391 0 14.4 0 18.75C0 23.9297 4.19531 28.125 9.37031 28.125H11.25C11.4563 28.125 11.625 27.9562 11.625 27.75V24.9375C11.625 24.7313 11.4563 24.5625 11.25 24.5625H9.37031C7.79062 24.5625 6.30469 23.9344 5.19844 22.7953C4.09687 21.6609 3.51094 20.1328 3.5625 18.5484C3.60469 17.3109 4.02656 16.1484 4.79062 15.1688C5.57344 14.1703 6.67031 13.4437 7.88906 13.1203L9.66563 12.6562L10.3172 10.9406C10.7203 9.87187 11.2828 8.87344 11.9906 7.96875C12.6894 7.07207 13.5171 6.28383 14.4469 5.62969C16.3734 4.275 18.6422 3.55781 21.0094 3.55781C23.3766 3.55781 25.6453 4.275 27.5719 5.62969C28.5047 6.28594 29.3297 7.07344 30.0281 7.96875C30.7359 8.87344 31.2984 9.87656 31.7016 10.9406L32.3484 12.6516L34.1203 13.1203C36.6609 13.8047 38.4375 16.1156 38.4375 18.75C38.4375 20.3016 37.8328 21.7641 36.7359 22.8609C36.198 23.402 35.5581 23.831 34.8533 24.1231C34.1484 24.4151 33.3926 24.5645 32.6297 24.5625H30.75C30.5438 24.5625 30.375 24.7313 30.375 24.9375V27.75C30.375 27.9562 30.5438 28.125 30.75 28.125H32.6297C37.8047 28.125 42 23.9297 42 18.75C42 14.4047 39.0422 10.7484 35.0344 9.68906Z" fill="#097CDC"/>
</svg>
